<svg width="15" height="15" viewBox="0 0 15 15" fill="none" xmlns="http://www.w3.org/2000/svg">
<path d="M7.34028 4.54362C6.73112 4.54362 6.13564 4.72908 5.62914 5.07654C5.12264 5.42399 4.72787 5.91785 4.49475 6.49565C4.26164 7.07345 4.20064 7.70925 4.31948 8.32264C4.43833 8.93603 4.73167 9.49946 5.16241 9.94169C5.59315 10.3839 6.14195 10.6851 6.73941 10.8071C7.33687 10.9291 7.95615 10.8665 8.51894 10.6272C9.08173 10.3878 9.56276 9.98252 9.90119 9.46251C10.2396 8.94251 10.4203 8.33114 10.4203 7.70574C10.4194 6.86736 10.0946 6.06357 9.51722 5.47075C8.9398 4.87793 8.15688 4.5445 7.34028 4.54362ZM7.34028 9.81381C6.93418 9.81381 6.53719 9.69018 6.19952 9.45854C5.86185 9.2269 5.59867 8.89766 5.44326 8.51246C5.28785 8.12726 5.24719 7.7034 5.32642 7.29447C5.40564 6.88555 5.6012 6.50992 5.88837 6.2151C6.17553 5.92028 6.5414 5.71951 6.9397 5.63817C7.33801 5.55683 7.75086 5.59857 8.12605 5.75813C8.50125 5.91769 8.82193 6.18788 9.04756 6.53455C9.27318 6.88123 9.3936 7.2888 9.3936 7.70574C9.3936 8.26483 9.17727 8.80103 8.7922 9.19637C8.40713 9.59171 7.88486 9.81381 7.34028 9.81381ZM10.4203 0.854492H4.2603C3.30761 0.855538 2.39423 1.24455 1.72057 1.93617C1.04692 2.62779 0.668011 3.56553 0.666992 4.54362V10.8679C0.668011 11.8459 1.04692 12.7837 1.72057 13.4753C2.39423 14.1669 3.30761 14.5559 4.2603 14.557H10.4203C11.373 14.5559 12.2863 14.1669 12.96 13.4753C13.6336 12.7837 14.0126 11.8459 14.0136 10.8679V4.54362C14.0126 3.56553 13.6336 2.62779 12.96 1.93617C12.2863 1.24455 11.373 0.855538 10.4203 0.854492ZM12.9869 10.8679C12.9869 11.5667 12.7165 12.237 12.2352 12.7311C11.7538 13.2253 11.101 13.5029 10.4203 13.5029H4.2603C3.57958 13.5029 2.92675 13.2253 2.44541 12.7311C1.96407 12.237 1.69365 11.5667 1.69365 10.8679V4.54362C1.69365 3.84475 1.96407 3.17451 2.44541 2.68033C2.92675 2.18616 3.57958 1.90853 4.2603 1.90853H10.4203C11.101 1.90853 11.7538 2.18616 12.2352 2.68033C12.7165 3.17451 12.9869 3.84475 12.9869 4.54362V10.8679ZM11.4469 4.28012C11.4469 4.43647 11.4018 4.58931 11.3172 4.71931C11.2325 4.84931 11.1123 4.95063 10.9716 5.01047C10.8309 5.0703 10.6761 5.08596 10.5267 5.05545C10.3773 5.02495 10.2401 4.94966 10.1325 4.8391C10.0248 4.72855 9.95144 4.58769 9.92173 4.43434C9.89202 4.28099 9.90727 4.12204 9.96555 3.97759C10.0238 3.83314 10.1225 3.70968 10.2491 3.62281C10.3758 3.53595 10.5246 3.48959 10.6769 3.48959C10.8811 3.48959 11.077 3.57287 11.2214 3.72113C11.3658 3.86938 11.4469 4.07045 11.4469 4.28012Z" fill="#D5DBE6"/>
</svg>
