<svg width="20" height="20" viewBox="0 0 20 20" fill="none" xmlns="http://www.w3.org/2000/svg">
<path d="M10 5.27246C9.10998 5.27246 8.23995 5.53638 7.49993 6.03085C6.75991 6.52531 6.18314 7.22812 5.84254 8.05039C5.50195 8.87265 5.41283 9.77745 5.58647 10.6504C5.7601 11.5233 6.18868 12.3251 6.81802 12.9544C7.44736 13.5838 8.24918 14.0124 9.12209 14.186C9.99501 14.3596 10.8998 14.2705 11.7221 13.9299C12.5443 13.5893 13.2471 13.0125 13.7416 12.2725C14.2361 11.5325 14.5 10.6625 14.5 9.77246C14.4988 8.57937 14.0243 7.4355 13.1806 6.59185C12.337 5.74821 11.1931 5.2737 10 5.27246ZM10 12.7725C9.40666 12.7725 8.82664 12.5965 8.33329 12.2669C7.83994 11.9372 7.45542 11.4687 7.22836 10.9205C7.0013 10.3723 6.94189 9.76913 7.05764 9.18719C7.1734 8.60525 7.45912 8.0707 7.87868 7.65114C8.29824 7.23158 8.83279 6.94586 9.41473 6.8301C9.99667 6.71435 10.5999 6.77376 11.1481 7.00082C11.6962 7.22788 12.1648 7.6124 12.4944 8.10575C12.8241 8.5991 13 9.17912 13 9.77246C13 10.5681 12.6839 11.3312 12.1213 11.8938C11.5587 12.4564 10.7956 12.7725 10 12.7725ZM14.5 0.0224609H5.5C4.10807 0.0239499 2.77358 0.577552 1.78933 1.56179C0.805091 2.54604 0.251489 3.88053 0.25 5.27246V14.2725C0.251489 15.6644 0.805091 16.9989 1.78933 17.9831C2.77358 18.9674 4.10807 19.521 5.5 19.5225H14.5C15.8919 19.521 17.2264 18.9674 18.2107 17.9831C19.1949 16.9989 19.7485 15.6644 19.75 14.2725V5.27246C19.7485 3.88053 19.1949 2.54604 18.2107 1.56179C17.2264 0.577552 15.8919 0.0239499 14.5 0.0224609ZM18.25 14.2725C18.25 15.267 17.8549 16.2208 17.1516 16.9241C16.4484 17.6274 15.4946 18.0225 14.5 18.0225H5.5C4.50544 18.0225 3.55161 17.6274 2.84835 16.9241C2.14509 16.2208 1.75 15.267 1.75 14.2725V5.27246C1.75 4.2779 2.14509 3.32407 2.84835 2.62081C3.55161 1.91755 4.50544 1.52246 5.5 1.52246H14.5C15.4946 1.52246 16.4484 1.91755 17.1516 2.62081C17.8549 3.32407 18.25 4.2779 18.25 5.27246V14.2725ZM16 4.89746C16 5.11997 15.934 5.33747 15.8104 5.52248C15.6868 5.70748 15.5111 5.85168 15.3055 5.93683C15.1 6.02197 14.8738 6.04425 14.6555 6.00084C14.4373 5.95744 14.2368 5.85029 14.0795 5.69296C13.9222 5.53562 13.815 5.33517 13.7716 5.11694C13.7282 4.89871 13.7505 4.67251 13.8356 4.46694C13.9208 4.26138 14.065 4.08567 14.25 3.96206C14.435 3.83844 14.6525 3.77246 14.875 3.77246C15.1734 3.77246 15.4595 3.89099 15.6705 4.10197C15.8815 4.31294 16 4.59909 16 4.89746Z" fill="white"/>
</svg>
