<svg width="14" height="15" viewBox="0 0 14 15" fill="none" xmlns="http://www.w3.org/2000/svg">
<path d="M12.7018 0.854492H1.4085C1.13621 0.854492 0.875074 0.965542 0.682538 1.16321C0.490002 1.36088 0.381836 1.62898 0.381836 1.90853V13.5029C0.381836 13.7825 0.490002 14.0506 0.682538 14.2483C0.875074 14.4459 1.13621 14.557 1.4085 14.557H12.7018C12.974 14.557 13.2352 14.4459 13.4277 14.2483C13.6203 14.0506 13.7284 13.7825 13.7284 13.5029V1.90853C13.7284 1.62898 13.6203 1.36088 13.4277 1.16321C13.2352 0.965542 12.974 0.854492 12.7018 0.854492ZM12.7018 13.5029H1.4085V1.90853H12.7018V13.5029ZM5.00181 6.6517V10.8679C5.00181 11.0076 4.94772 11.1417 4.85146 11.2405C4.75519 11.3393 4.62462 11.3949 4.48848 11.3949C4.35233 11.3949 4.22177 11.3393 4.1255 11.2405C4.02923 11.1417 3.97515 11.0076 3.97515 10.8679V6.6517C3.97515 6.51193 4.02923 6.37788 4.1255 6.27904C4.22177 6.18021 4.35233 6.12468 4.48848 6.12468C4.62462 6.12468 4.75519 6.18021 4.85146 6.27904C4.94772 6.37788 5.00181 6.51193 5.00181 6.6517ZM10.6484 8.49627V10.8679C10.6484 11.0076 10.5944 11.1417 10.4981 11.2405C10.4018 11.3393 10.2713 11.3949 10.1351 11.3949C9.99896 11.3949 9.8684 11.3393 9.77213 11.2405C9.67586 11.1417 9.62178 11.0076 9.62178 10.8679V8.49627C9.62178 8.14683 9.48657 7.81171 9.2459 7.56462C9.00523 7.31753 8.67881 7.17872 8.33845 7.17872C7.99809 7.17872 7.67167 7.31753 7.431 7.56462C7.19033 7.81171 7.05513 8.14683 7.05513 8.49627V10.8679C7.05513 11.0076 7.00104 11.1417 6.90478 11.2405C6.80851 11.3393 6.67794 11.3949 6.5418 11.3949C6.40565 11.3949 6.27509 11.3393 6.17882 11.2405C6.08255 11.1417 6.02847 11.0076 6.02847 10.8679V6.6517C6.0291 6.52261 6.07587 6.39825 6.15989 6.30221C6.24391 6.20617 6.35934 6.14513 6.48429 6.13067C6.60923 6.11621 6.73501 6.14933 6.83774 6.22376C6.94048 6.29818 7.01304 6.40873 7.04165 6.53444C7.38891 6.29259 7.79378 6.15241 8.21278 6.12898C8.63178 6.10554 9.04909 6.19972 9.41988 6.40141C9.79068 6.60309 10.101 6.90467 10.3174 7.27374C10.5339 7.64282 10.6483 8.06545 10.6484 8.49627ZM5.25847 4.80713C5.25847 4.96349 5.21331 5.11633 5.1287 5.24633C5.0441 5.37633 4.92384 5.47765 4.78314 5.53749C4.64244 5.59732 4.48762 5.61298 4.33826 5.58247C4.18889 5.55197 4.05169 5.47668 3.94401 5.36612C3.83632 5.25556 3.76299 5.11471 3.73328 4.96136C3.70357 4.80801 3.71881 4.64906 3.77709 4.50461C3.83537 4.36016 3.93407 4.2367 4.06069 4.14983C4.18732 4.06297 4.33619 4.01661 4.48848 4.01661C4.69269 4.01661 4.88854 4.09989 5.03295 4.24815C5.17735 4.3964 5.25847 4.59747 5.25847 4.80713Z" fill="#D5DBE6"/>
</svg>
