<svg width="20" height="20" viewBox="0 0 20 20" fill="none" xmlns="http://www.w3.org/2000/svg">
<path d="M18.25 0.0224609H1.75C1.35218 0.0224609 0.970644 0.180496 0.68934 0.461801C0.408035 0.743105 0.25 1.12464 0.25 1.52246V18.0225C0.25 18.4203 0.408035 18.8018 0.68934 19.0831C0.970644 19.3644 1.35218 19.5225 1.75 19.5225H18.25C18.6478 19.5225 19.0294 19.3644 19.3107 19.0831C19.592 18.8018 19.75 18.4203 19.75 18.0225V1.52246C19.75 1.12464 19.592 0.743105 19.3107 0.461801C19.0294 0.180496 18.6478 0.0224609 18.25 0.0224609ZM18.25 18.0225H1.75V1.52246H18.25V18.0225ZM7 8.27246V14.2725C7 14.4714 6.92098 14.6621 6.78033 14.8028C6.63968 14.9434 6.44891 15.0225 6.25 15.0225C6.05109 15.0225 5.86032 14.9434 5.71967 14.8028C5.57902 14.6621 5.5 14.4714 5.5 14.2725V8.27246C5.5 8.07355 5.57902 7.88278 5.71967 7.74213C5.86032 7.60148 6.05109 7.52246 6.25 7.52246C6.44891 7.52246 6.63968 7.60148 6.78033 7.74213C6.92098 7.88278 7 8.07355 7 8.27246ZM15.25 10.8975V14.2725C15.25 14.4714 15.171 14.6621 15.0303 14.8028C14.8897 14.9434 14.6989 15.0225 14.5 15.0225C14.3011 15.0225 14.1103 14.9434 13.9697 14.8028C13.829 14.6621 13.75 14.4714 13.75 14.2725V10.8975C13.75 10.4002 13.5525 9.92327 13.2008 9.57164C12.8492 9.22001 12.3723 9.02246 11.875 9.02246C11.3777 9.02246 10.9008 9.22001 10.5492 9.57164C10.1975 9.92327 10 10.4002 10 10.8975V14.2725C10 14.4714 9.92098 14.6621 9.78033 14.8028C9.63968 14.9434 9.44891 15.0225 9.25 15.0225C9.05109 15.0225 8.86032 14.9434 8.71967 14.8028C8.57902 14.6621 8.5 14.4714 8.5 14.2725V8.27246C8.50093 8.08875 8.56925 7.91178 8.69201 7.7751C8.81477 7.63843 8.98342 7.55156 9.16598 7.53098C9.34853 7.5104 9.53229 7.55754 9.68239 7.66346C9.8325 7.76937 9.93851 7.9267 9.98031 8.10559C10.4877 7.7614 11.0792 7.56193 11.6914 7.52857C12.3036 7.49522 12.9133 7.62925 13.455 7.91627C13.9968 8.20329 14.4501 8.63246 14.7664 9.15769C15.0826 9.68292 15.2498 10.2844 15.25 10.8975ZM7.375 5.64746C7.375 5.86997 7.30902 6.08747 7.1854 6.27248C7.06179 6.45748 6.88609 6.60168 6.68052 6.68683C6.47495 6.77197 6.24875 6.79425 6.03052 6.75084C5.81229 6.70744 5.61184 6.60029 5.4545 6.44296C5.29717 6.28562 5.19002 6.08517 5.14662 5.86694C5.10321 5.64871 5.12549 5.42251 5.21064 5.21694C5.29578 5.01138 5.43998 4.83567 5.62498 4.71206C5.80999 4.58844 6.0275 4.52246 6.25 4.52246C6.54837 4.52246 6.83452 4.64099 7.0455 4.85197C7.25647 5.06294 7.375 5.34909 7.375 5.64746Z" fill="white"/>
</svg>
