<svg width="18" height="18" viewBox="0 0 18 18" fill="none" xmlns="http://www.w3.org/2000/svg">
<path d="M17.3446 9.37607L15.2196 11.5011C15.1703 11.5505 15.1117 11.5897 15.0472 11.6164C14.9827 11.6431 14.9135 11.6569 14.8437 11.6569C14.7739 11.6569 14.7048 11.6431 14.6403 11.6164C14.5758 11.5897 14.5172 11.5505 14.4679 11.5011L13.4054 10.4386C13.3057 10.3389 13.2497 10.2037 13.2497 10.0627C13.2497 9.92174 13.3057 9.78654 13.4054 9.68685C13.5051 9.58717 13.6403 9.53117 13.7812 9.53117C13.9222 9.53117 14.0574 9.58717 14.1571 9.68685L14.8437 10.3742L16.5929 8.62435C16.6926 8.52467 16.8278 8.46867 16.9687 8.46867C17.1097 8.46867 17.2449 8.52467 17.3446 8.62436C17.4443 8.72404 17.5003 8.85924 17.5003 9.00021C17.5003 9.14119 17.4443 9.27639 17.3446 9.37607ZM10.0625 10.9712C10.8953 10.4525 11.5365 9.67664 11.8891 8.76107C12.2417 7.8455 12.2865 6.84 12.0168 5.89669C11.747 4.95338 11.1774 4.12358 10.3941 3.53284C9.61073 2.9421 8.6563 2.62256 7.67518 2.62256C6.69406 2.62256 5.73963 2.9421 4.95629 3.53284C4.17294 4.12358 3.60331 4.95338 3.33357 5.89669C3.06383 6.84 3.10865 7.8455 3.46126 8.76107C3.81387 9.67664 4.45507 10.4525 5.28787 10.9712C3.91658 11.4201 2.68276 12.2588 1.69065 13.4395C1.62569 13.5167 1.58407 13.6108 1.57064 13.7108C1.55722 13.8108 1.57254 13.9125 1.61483 14.0041C1.65711 14.0957 1.7246 14.1734 1.80941 14.228C1.89422 14.2827 1.99284 14.3121 2.09373 14.3127H13.25C13.3512 14.3128 13.4504 14.284 13.5358 14.2296C13.6212 14.1753 13.6893 14.0977 13.732 14.0059C13.7748 13.9142 13.7905 13.8121 13.7772 13.7118C13.7639 13.6114 13.7222 13.5169 13.6571 13.4395C12.6643 12.2588 11.4305 11.4201 10.0625 10.9712Z" fill="#8B8D91"/>
</svg>
