<svg width="27" height="20" viewBox="0 0 27 20" fill="none" xmlns="http://www.w3.org/2000/svg">
<path d="M14.7501 14.2462C16.1218 13.3919 17.1779 12.1141 17.7586 10.6061C18.3394 9.0981 18.4132 7.44198 17.969 5.88829C17.5247 4.3346 16.5865 2.96788 15.2962 1.99489C14.006 1.02191 12.434 0.495605 10.8181 0.495605C9.20211 0.495605 7.63011 1.02191 6.3399 1.99489C5.04969 2.96788 4.11147 4.3346 3.66719 5.88829C3.22291 7.44198 3.29674 9.0981 3.8775 10.6061C4.45827 12.1141 5.51438 13.3919 6.88604 14.2462C4.62745 14.9856 2.59526 16.367 0.9612 18.3117C0.811809 18.4894 0.739117 18.7191 0.759116 18.9504C0.779115 19.1817 0.890167 19.3955 1.06784 19.5449C1.24552 19.6943 1.47526 19.767 1.70653 19.747C1.9378 19.727 2.15165 19.6159 2.30104 19.4383C4.4962 16.8176 7.52151 15.375 10.8126 15.375C14.1037 15.375 17.129 16.8176 19.3296 19.4383C19.479 19.6159 19.6929 19.727 19.9242 19.747C20.1554 19.767 20.3852 19.6943 20.5628 19.5449C20.7405 19.3955 20.8516 19.1817 20.8716 18.9504C20.8916 18.7191 20.8189 18.4894 20.6695 18.3117C19.0354 16.367 17.0032 14.9856 14.7501 14.2462ZM5.12511 7.93748C5.12511 6.8126 5.45867 5.71298 6.08362 4.77767C6.70857 3.84237 7.59684 3.11339 8.6361 2.68291C9.67535 2.25244 10.8189 2.13981 11.9222 2.35926C13.0254 2.57872 14.0389 3.1204 14.8343 3.91581C15.6297 4.71122 16.1714 5.72464 16.3908 6.8279C16.6103 7.93117 16.4976 9.07474 16.0672 10.114C15.6367 11.1532 14.9077 12.0415 13.9724 12.6665C13.0371 13.2914 11.9375 13.625 10.8126 13.625C9.30472 13.6232 7.85909 13.0235 6.79286 11.9572C5.72662 10.891 5.12684 9.44536 5.12511 7.93748ZM26.7442 11.619L23.2442 15.119C23.1629 15.2004 23.0664 15.2649 22.9602 15.309C22.854 15.353 22.7401 15.3757 22.6251 15.3757C22.5101 15.3757 22.3963 15.353 22.29 15.309C22.1838 15.2649 22.0873 15.2004 22.006 15.119L20.256 13.369C20.0919 13.2049 19.9996 12.9822 19.9996 12.75C19.9996 12.5178 20.0919 12.2951 20.256 12.1309C20.4202 11.9667 20.6429 11.8745 20.8751 11.8745C21.1073 11.8745 21.33 11.9667 21.4942 12.1309L22.6251 13.2629L25.506 10.3809C25.6702 10.2167 25.8929 10.1245 26.1251 10.1245C26.3573 10.1245 26.58 10.2167 26.7442 10.3809C26.9084 10.5451 27.0006 10.7678 27.0006 11C27.0006 11.2322 26.9084 11.4549 26.7442 11.619Z" fill="#D5DBE6"/>
</svg>
