<svg width="18" height="18" viewBox="0 0 18 18" fill="none" xmlns="http://www.w3.org/2000/svg">
<path d="M4.75792 9.98505C4.75972 10.021 4.75418 10.057 4.74164 10.0908C4.7291 10.1246 4.70982 10.1554 4.68497 10.1815C4.66012 10.2076 4.63023 10.2284 4.5971 10.2425C4.56398 10.2567 4.52832 10.264 4.49229 10.264H1.56245C1.44254 10.2641 1.3261 10.2238 1.23206 10.1494C1.13802 10.075 1.07191 9.97096 1.04448 9.85423C1.0274 9.77433 1.02819 9.69165 1.04678 9.6121C1.06538 9.53254 1.10133 9.45808 1.15206 9.39403C1.62076 8.77246 2.24264 8.28305 2.95698 7.9736C2.64336 7.68766 2.40282 7.33073 2.25551 6.93271C2.1082 6.53469 2.05841 6.10716 2.11031 5.68594C2.1622 5.26472 2.31427 4.86207 2.55378 4.5117C2.7933 4.16134 3.11327 3.87347 3.48692 3.67219C3.86056 3.47092 4.277 3.36211 4.70134 3.35488C5.12569 3.34764 5.54559 3.44219 5.92588 3.63061C6.30617 3.81903 6.63577 4.09582 6.88709 4.43782C7.1384 4.77982 7.30411 5.17705 7.37034 5.59626C7.37889 5.65263 7.36879 5.71026 7.34158 5.76036C7.31437 5.81047 7.27153 5.85032 7.21959 5.87384C6.48275 6.21449 5.85871 6.7588 5.42112 7.44254C4.98353 8.12628 4.75064 8.92093 4.74995 9.73271C4.74995 9.81771 4.74995 9.90138 4.75792 9.98505ZM16.8439 9.39337C16.3762 8.77252 15.7558 8.28337 15.0429 7.9736C15.3565 7.68766 15.5971 7.33073 15.7444 6.93271C15.8917 6.53469 15.9415 6.10716 15.8896 5.68594C15.8377 5.26472 15.6856 4.86207 15.4461 4.5117C15.2066 4.16134 14.8866 3.87347 14.513 3.67219C14.1393 3.47092 13.7229 3.36211 13.2985 3.35488C12.8742 3.34764 12.4543 3.44219 12.074 3.63061C11.6937 3.81903 11.3641 4.09582 11.1128 4.43782C10.8615 4.77982 10.6958 5.17705 10.6296 5.59626C10.621 5.65263 10.6311 5.71026 10.6583 5.76036C10.6855 5.81047 10.7284 5.85032 10.7803 5.87384C11.5171 6.21449 12.1412 6.7588 12.5788 7.44254C13.0164 8.12628 13.2492 8.92093 13.2499 9.73271C13.2499 9.81771 13.2499 9.90138 13.242 9.98505C13.2402 10.021 13.2457 10.057 13.2583 10.0908C13.2708 10.1246 13.2901 10.1554 13.3149 10.1815C13.3398 10.2076 13.3697 10.2284 13.4028 10.2425C13.4359 10.2567 13.4716 10.264 13.5076 10.264H16.4374C16.5574 10.2641 16.6738 10.2238 16.7678 10.1494C16.8619 10.075 16.928 9.97096 16.9554 9.85423C16.9726 9.77419 16.9718 9.69133 16.9531 9.61164C16.9344 9.53194 16.8982 9.45739 16.8472 9.39337H16.8439ZM10.9337 12.2608C11.4627 11.8557 11.8514 11.295 12.0452 10.6576C12.2391 10.0201 12.2283 9.33799 12.0144 8.70699C11.8006 8.07599 11.3944 7.52786 10.8529 7.13965C10.3114 6.75144 9.66189 6.54267 8.99563 6.54267C8.32937 6.54267 7.67986 6.75144 7.13838 7.13965C6.5969 7.52786 6.19068 8.07599 5.97681 8.70699C5.76294 9.33799 5.75218 10.0201 5.94603 10.6576C6.13988 11.295 6.5286 11.8557 7.05756 12.2608C6.11894 12.6675 5.33516 13.364 4.821 14.2483C4.77437 14.3291 4.74982 14.4207 4.74983 14.514C4.74983 14.6072 4.77439 14.6989 4.82103 14.7796C4.86767 14.8604 4.93475 14.9275 5.01553 14.9741C5.09631 15.0207 5.18793 15.0452 5.2812 15.0452H12.7187C12.812 15.0452 12.9036 15.0207 12.9844 14.9741C13.0651 14.9275 13.1322 14.8604 13.1789 14.7796C13.2255 14.6989 13.2501 14.6072 13.2501 14.514C13.2501 14.4207 13.2255 14.3291 13.1789 14.2483C12.6636 13.3634 11.8784 12.6669 10.9383 12.2608H10.9337Z" fill="#D5DBE6"/>
</svg>
