<svg width="45" height="46" viewBox="0 0 45 46" fill="none" xmlns="http://www.w3.org/2000/svg">
<path d="M40.4079 35.1909H4.59206C2.06048 35.1909 0 33.4668 0 31.3473V13.9301C0 11.8107 2.06539 10.0865 4.59206 10.0865H5.43985C5.64853 10.0865 5.84866 10.1694 5.99622 10.317C6.14377 10.4646 6.22667 10.6647 6.22667 10.8734C6.22667 11.082 6.14377 11.2822 5.99622 11.4297C5.84866 11.5773 5.64853 11.6602 5.43985 11.6602H4.59206C2.95646 11.6602 1.57363 12.6998 1.57363 13.9301V31.3473C1.57363 32.5777 2.95646 33.6173 4.59206 33.6173H40.4079C42.0435 33.6173 43.4264 32.5777 43.4264 31.3473V13.9301C43.4264 12.6998 42.0435 11.6602 40.4079 11.6602H39.5601C39.3515 11.6602 39.1513 11.5773 39.0038 11.4297C38.8562 11.2822 38.7733 11.082 38.7733 10.8734C38.7733 10.6647 38.8562 10.4646 39.0038 10.317C39.1513 10.1694 39.3515 10.0865 39.5601 10.0865H40.4079C42.9395 10.0865 45 11.8107 45 13.9301V31.3473C45 33.4668 42.9395 35.1909 40.4079 35.1909Z" fill="#EAEAEB"/>
<path d="M26.1626 41.3506C25.9539 41.3506 25.7538 41.2677 25.6063 41.1202C25.4587 40.9726 25.3758 40.7725 25.3758 40.5638V34.404C25.3758 34.1953 25.4587 33.9952 25.6063 33.8476C25.7538 33.7001 25.9539 33.6172 26.1626 33.6172C26.3713 33.6172 26.5714 33.7001 26.719 33.8476C26.8665 33.9952 26.9494 34.1953 26.9494 34.404V40.5638C26.9494 40.7725 26.8665 40.9726 26.719 41.1202C26.5714 41.2677 26.3713 41.3506 26.1626 41.3506ZM18.8374 41.3506C18.6287 41.3506 18.4285 41.2677 18.281 41.1202C18.1334 40.9726 18.0505 40.7725 18.0505 40.5638V34.404C18.0505 34.1953 18.1334 33.9952 18.281 33.8476C18.4285 33.7001 18.6287 33.6172 18.8374 33.6172C19.046 33.6172 19.2462 33.7001 19.3937 33.8476C19.5413 33.9952 19.6242 34.1953 19.6242 34.404V40.5638C19.6242 40.7725 19.5413 40.9726 19.3937 41.1202C19.2462 41.2677 19.046 41.3506 18.8374 41.3506Z" fill="#EAEAEB"/>
<path d="M29.905 45.9181H15.0952C14.8865 45.9181 14.6864 45.8352 14.5388 45.6876C14.3912 45.5401 14.3083 45.3399 14.3083 45.1313V42.8475C14.3091 42.0334 14.6329 41.2529 15.2086 40.6772C15.7842 40.1015 16.5648 39.7778 17.3789 39.777H27.6213C28.4354 39.7778 29.216 40.1015 29.7916 40.6772C30.3673 41.2529 30.6911 42.0334 30.6918 42.8475V45.1313C30.6918 45.3399 30.6089 45.5401 30.4614 45.6876C30.3138 45.8352 30.1137 45.9181 29.905 45.9181ZM15.882 44.3444H29.1182V42.8475C29.1177 42.4507 28.9598 42.0702 28.6792 41.7896C28.3986 41.509 28.0181 41.3511 27.6213 41.3506H17.3789C16.9821 41.3511 16.6016 41.509 16.321 41.7896C16.0404 42.0702 15.8825 42.4507 15.882 42.8475V44.3444Z" fill="#EAEAEB"/>
<path d="M37.9981 31.302H7.00148C6.37865 31.3012 5.78157 31.0534 5.34125 30.6129C4.90093 30.1724 4.65335 29.5752 4.65283 28.9524V2.43471C4.65335 1.81197 4.90097 1.21488 5.34131 0.774538C5.78165 0.334194 6.37874 0.0865805 7.00148 0.0860596H37.9981C38.6209 0.0865805 39.2179 0.334194 39.6583 0.774538C40.0986 1.21488 40.3462 1.81197 40.3468 2.43471V28.9524C40.3462 29.5752 40.0987 30.1724 39.6583 30.6129C39.218 31.0534 38.6209 31.3012 37.9981 31.302ZM7.00148 1.65969C6.79609 1.66021 6.59927 1.74203 6.45403 1.88726C6.3088 2.03249 6.22698 2.22932 6.22646 2.43471V28.9524C6.22672 29.1579 6.30843 29.355 6.45369 29.5005C6.59895 29.6459 6.79592 29.7279 7.00148 29.7284H37.9981C38.2037 29.7279 38.4006 29.6459 38.5459 29.5005C38.6912 29.355 38.7729 29.1579 38.7731 28.9524V2.43471C38.7726 2.22932 38.6908 2.03249 38.5456 1.88726C38.4003 1.74203 38.2035 1.66021 37.9981 1.65969H7.00148Z" fill="#EAEAEB"/>
<path d="M39.5599 8.90139H5.43965C5.23097 8.90139 5.03084 8.8185 4.88329 8.67094C4.73573 8.52338 4.65283 8.32325 4.65283 8.11458C4.65283 7.9059 4.73573 7.70577 4.88329 7.55821C5.03084 7.41066 5.23097 7.32776 5.43965 7.32776H39.5599C39.7686 7.32776 39.9688 7.41066 40.1163 7.55821C40.2639 7.70577 40.3468 7.9059 40.3468 8.11458C40.3468 8.32325 40.2639 8.52338 40.1163 8.67094C39.9688 8.8185 39.7686 8.90139 39.5599 8.90139Z" fill="#EAEAEB"/>
<path d="M32.2292 6.62347C31.8078 6.62366 31.3958 6.49886 31.0453 6.26486C30.6948 6.03085 30.4216 5.69815 30.2602 5.30885C30.0989 4.91955 30.0566 4.49113 30.1388 4.0778C30.221 3.66447 30.4239 3.28479 30.7219 2.98681C31.0198 2.68882 31.3995 2.48591 31.8128 2.40374C32.2262 2.32157 32.6546 2.36384 33.0439 2.5252C33.4332 2.68656 33.7659 2.95976 33.9999 3.31024C34.2339 3.66072 34.3587 4.07273 34.3585 4.49414C34.358 5.05872 34.1335 5.60001 33.7343 5.99923C33.3351 6.39844 32.7938 6.62295 32.2292 6.62347ZM32.2292 3.93747C32.1191 3.93728 32.0113 3.96976 31.9197 4.03081C31.828 4.09186 31.7565 4.17873 31.7142 4.28043C31.6719 4.38213 31.6607 4.49409 31.6821 4.60214C31.7035 4.71019 31.7564 4.80947 31.8342 4.88742C31.912 4.96537 32.0112 5.01849 32.1192 5.04005C32.2273 5.06161 32.3392 5.05064 32.441 5.00854C32.5428 4.96643 32.6298 4.89508 32.691 4.80352C32.7522 4.71195 32.7849 4.60429 32.7849 4.49414C32.7849 4.34668 32.7264 4.20523 32.6222 4.10086C32.518 3.9965 32.3767 3.93773 32.2292 3.93747Z" fill="#EAEAEB"/>
<path d="M26.9394 6.62347C26.518 6.62366 26.106 6.49886 25.7555 6.26486C25.405 6.03085 25.1318 5.69815 24.9705 5.30885C24.8091 4.91955 24.7668 4.49113 24.849 4.0778C24.9312 3.66447 25.1341 3.28479 25.4321 2.98681C25.73 2.68882 26.1097 2.48591 26.5231 2.40374C26.9364 2.32157 27.3648 2.36384 27.7541 2.5252C28.1434 2.68656 28.4761 2.95976 28.7101 3.31024C28.9441 3.66072 29.0689 4.07273 29.0687 4.49414C29.0682 5.05872 28.8437 5.60001 28.4445 5.99923C28.0453 6.39844 27.504 6.62295 26.9394 6.62347ZM26.9394 3.93747C26.8293 3.93728 26.7215 3.96976 26.6299 4.03081C26.5382 4.09186 26.4667 4.17873 26.4244 4.28043C26.3821 4.38213 26.3709 4.49409 26.3923 4.60214C26.4137 4.71019 26.4666 4.80947 26.5444 4.88742C26.6222 4.96537 26.7214 5.01849 26.8294 5.04005C26.9375 5.06161 27.0494 5.05064 27.1512 5.00854C27.253 4.96643 27.34 4.89508 27.4012 4.80352C27.4624 4.71195 27.4951 4.60429 27.4951 4.49414C27.4951 4.34668 27.4366 4.20523 27.3324 4.10086C27.2282 3.9965 27.0869 3.93773 26.9394 3.93747Z" fill="#EAEAEB"/>
<path d="M22.1566 5.28103H8.4709C8.26222 5.28103 8.06209 5.19813 7.91454 5.05058C7.76698 4.90302 7.68408 4.70289 7.68408 4.49421C7.68408 4.28554 7.76698 4.08541 7.91454 3.93785C8.06209 3.79029 8.26222 3.7074 8.4709 3.7074H22.1566C22.3653 3.7074 22.5654 3.79029 22.7129 3.93785C22.8605 4.08541 22.9434 4.28554 22.9434 4.49421C22.9434 4.70289 22.8605 4.90302 22.7129 5.05058C22.5654 5.19813 22.3653 5.28103 22.1566 5.28103Z" fill="#EAEAEB"/>
<path d="M11.2879 18.2133C10.6714 18.2135 10.0688 18.0309 9.55607 17.6885C9.04339 17.3461 8.64375 16.8594 8.4077 16.2899C8.17165 15.7204 8.10979 15.0937 8.22994 14.4891C8.35009 13.8844 8.64685 13.329 9.0827 12.893C9.51855 12.457 10.0739 12.16 10.6785 12.0397C11.2832 11.9194 11.9099 11.981 12.4795 12.2169C13.049 12.4528 13.5359 12.8523 13.8784 13.3648C14.2209 13.8774 14.4037 14.48 14.4037 15.0965C14.4029 15.9227 14.0745 16.7149 13.4903 17.2992C12.9062 17.8835 12.1141 18.2122 11.2879 18.2133ZM11.2879 13.5544C10.9826 13.5542 10.6842 13.6445 10.4302 13.814C10.1763 13.9835 9.97837 14.2245 9.86145 14.5065C9.74454 14.7885 9.71389 15.0989 9.7734 15.3983C9.83292 15.6977 9.97991 15.9728 10.1958 16.1887C10.4116 16.4045 10.6867 16.5515 10.9861 16.611C11.2856 16.6706 11.5959 16.6399 11.8779 16.523C12.1599 16.4061 12.4009 16.2081 12.5704 15.9542C12.7399 15.7003 12.8303 15.4018 12.8301 15.0965C12.8296 14.6877 12.6669 14.2957 12.3778 14.0066C12.0887 13.7175 11.6968 13.5549 11.2879 13.5544Z" fill="#EAEAEB"/>
<path d="M22.5001 18.2133C21.8836 18.2135 21.2809 18.0309 20.7682 17.6885C20.2555 17.3461 19.8559 16.8594 19.6199 16.2899C19.3838 15.7204 19.3219 15.0937 19.4421 14.4891C19.5622 13.8844 19.859 13.329 20.2949 12.893C20.7307 12.457 21.2861 12.16 21.8907 12.0397C22.4953 11.9194 23.122 11.981 23.6916 12.2169C24.2612 12.4528 24.748 12.8523 25.0905 13.3648C25.4331 13.8774 25.6159 14.48 25.6159 15.0965C25.6151 15.9227 25.2866 16.7149 24.7025 17.2992C24.1184 17.8835 23.3263 18.2122 22.5001 18.2133ZM22.5001 13.5544C22.1948 13.5542 21.8963 13.6445 21.6424 13.814C21.3885 13.9835 21.1905 14.2245 21.0736 14.5065C20.9567 14.7885 20.9261 15.0989 20.9856 15.3983C21.0451 15.6977 21.1921 15.9728 21.4079 16.1887C21.6238 16.4045 21.8989 16.5515 22.1983 16.611C22.4977 16.6706 22.8081 16.6399 23.0901 16.523C23.3721 16.4061 23.6131 16.2081 23.7826 15.9542C23.9521 15.7003 24.0424 15.4018 24.0422 15.0965C24.0417 14.6877 23.8791 14.2957 23.59 14.0066C23.3009 13.7175 22.9089 13.5549 22.5001 13.5544Z" fill="#EAEAEB"/>
<path d="M33.712 18.2133C33.0955 18.2135 32.4928 18.0309 31.9801 17.6885C31.4675 17.3461 31.0678 16.8594 30.8318 16.2899C30.5957 15.7204 30.5339 15.0937 30.654 14.4891C30.7742 13.8844 31.0709 13.329 31.5068 12.893C31.9426 12.457 32.498 12.16 33.1026 12.0397C33.7072 11.9194 34.334 11.981 34.9035 12.2169C35.4731 12.4528 35.9599 12.8523 36.3025 13.3648C36.645 13.8774 36.8278 14.48 36.8278 15.0965C36.827 15.9227 36.4985 16.7149 35.9144 17.2992C35.3303 17.8835 34.5382 18.2122 33.712 18.2133ZM33.712 13.5544C33.4067 13.5542 33.1082 13.6445 32.8543 13.814C32.6004 13.9835 32.4024 14.2245 32.2855 14.5065C32.1686 14.7885 32.138 15.0989 32.1975 15.3983C32.257 15.6977 32.404 15.9728 32.6199 16.1887C32.8357 16.4045 33.1108 16.5515 33.4102 16.611C33.7096 16.6706 34.02 16.6399 34.302 16.523C34.584 16.4061 34.825 16.2081 34.9945 15.9542C35.164 15.7003 35.2544 15.4018 35.2542 15.0965C35.2536 14.6877 35.091 14.2957 34.8019 14.0066C34.5128 13.7175 34.1208 13.5549 33.712 13.5544Z" fill="#EAEAEB"/>
<path d="M36.0393 24.3072H21.2275C21.0188 24.3072 20.8187 24.2243 20.6711 24.0768C20.5236 23.9292 20.4407 23.7291 20.4407 23.5204C20.4407 23.3117 20.5236 23.1116 20.6711 22.964C20.8187 22.8165 21.0188 22.7336 21.2275 22.7336H36.0393C36.248 22.7336 36.4481 22.8165 36.5957 22.964C36.7432 23.1116 36.8261 23.3117 36.8261 23.5204C36.8261 23.7291 36.7432 23.9292 36.5957 24.0768C36.4481 24.2243 36.248 24.3072 36.0393 24.3072Z" fill="#EAEAEB"/>
<path d="M16.5311 27.2922H8.95796C8.74928 27.2922 8.54915 27.2093 8.4016 27.0617C8.25404 26.9142 8.17114 26.7141 8.17114 26.5054V20.5364C8.17114 20.3277 8.25404 20.1276 8.4016 19.98C8.54915 19.8325 8.74928 19.7496 8.95796 19.7496H16.5311C16.7397 19.7496 16.9399 19.8325 17.0874 19.98C17.235 20.1276 17.3179 20.3277 17.3179 20.5364V26.5054C17.3179 26.7141 17.235 26.9142 17.0874 27.0617C16.9399 27.2093 16.7397 27.2922 16.5311 27.2922ZM9.74478 25.7186H15.7443V21.3232H9.74478V25.7186Z" fill="#EAEAEB"/>
</svg>
