<svg width="46" height="38" viewBox="0 0 46 38" fill="none" xmlns="http://www.w3.org/2000/svg">
<path d="M40.8694 0.0870361H4.86938C3.67628 0.0882275 2.53238 0.562716 1.68872 1.40637C0.845064 2.25003 0.370576 3.39393 0.369385 4.58704L0.369385 33.087C0.370576 34.2801 0.845064 35.424 1.68872 36.2677C2.53238 37.1114 3.67628 37.5858 4.86938 37.587H40.8694C42.0625 37.5858 43.2064 37.1114 44.05 36.2677C44.8937 35.424 45.3682 34.2801 45.3694 33.087V4.58704C45.3682 3.39393 44.8937 2.25003 44.05 1.40637C43.2064 0.562716 42.0625 0.0882275 40.8694 0.0870361ZM40.8694 36.087H4.86938C4.07374 36.087 3.31067 35.771 2.74806 35.2084C2.18546 34.6457 1.86938 33.8827 1.86938 33.087V4.58704C1.86938 3.79139 2.18546 3.02832 2.74806 2.46572C3.31067 1.90311 4.07374 1.58704 4.86938 1.58704H40.8694C41.665 1.58704 42.4281 1.90311 42.9907 2.46572C43.5533 3.02832 43.8694 3.79139 43.8694 4.58704V15.225C43.3863 15.041 42.8525 15.041 42.3694 15.225V4.58704C42.3694 4.18921 42.2113 3.80768 41.93 3.52638C41.6487 3.24507 41.2672 3.08704 40.8694 3.08704H4.86938C4.47156 3.08704 4.09003 3.24507 3.80872 3.52638C3.52742 3.80768 3.36938 4.18921 3.36938 4.58704V33.087C3.36938 33.4849 3.52742 33.8664 3.80872 34.1477C4.09003 34.429 4.47156 34.587 4.86938 34.587H40.8694C41.2672 34.587 41.6487 34.429 41.93 34.1477C42.2113 33.8664 42.3694 33.4849 42.3694 33.087V22.449C42.8525 22.6331 43.3863 22.6331 43.8694 22.449V33.087C43.8694 33.8827 43.5533 34.6457 42.9907 35.2084C42.4281 35.771 41.665 36.087 40.8694 36.087ZM43.8694 20.337C43.8694 20.5359 43.7904 20.7267 43.6497 20.8674C43.5091 21.008 43.3183 21.087 43.1194 21.087C42.9205 21.087 42.7297 21.008 42.5891 20.8674C42.4484 20.7267 42.3694 20.5359 42.3694 20.337V17.337C42.3694 17.1381 42.4484 16.9474 42.5891 16.8067C42.7297 16.6661 42.9205 16.587 43.1194 16.587C43.3183 16.587 43.5091 16.6661 43.6497 16.8067C43.7904 16.9474 43.8694 17.1381 43.8694 17.337V20.337ZM40.8694 17.337V33.087H4.86938V4.58704H40.8694V17.337Z" fill="#EAEAEB"/>
<path d="M12.3694 28.587H21.3694C21.7483 28.5862 22.1209 28.4895 22.4525 28.3059C22.784 28.1223 23.0636 27.8578 23.2654 27.537C24.615 28.6999 26.3378 29.3387 28.1194 29.337C30.1085 29.337 32.0162 28.5468 33.4227 27.1403C34.8292 25.7338 35.6194 23.8261 35.6194 21.837C35.6194 19.8479 34.8292 17.9402 33.4227 16.5337C32.0162 15.1272 30.1085 14.337 28.1194 14.337C27.9446 14.337 27.7729 14.3625 27.6004 14.3745L24.5696 9.30673C24.395 9.01098 24.1462 8.76589 23.8479 8.59563C23.5496 8.42537 23.2121 8.33582 22.8686 8.33582C22.5252 8.33582 22.1876 8.42537 21.8893 8.59563C21.591 8.76589 21.3423 9.01098 21.1676 9.30673L17.7116 15.087H12.3694C11.7726 15.087 11.2004 15.324 10.7784 15.746C10.3564 16.1679 10.1194 16.7402 10.1194 17.337V26.337C10.1194 26.9337 10.3564 27.506 10.7784 27.928C11.2004 28.3499 11.7726 28.587 12.3694 28.587ZM34.1194 21.837C34.1176 23.4277 33.4849 24.9528 32.3601 26.0776C31.2352 27.2025 29.7101 27.8352 28.1194 27.837C27.2656 27.8383 26.4216 27.6554 25.645 27.3008C24.8684 26.9461 24.1775 26.4281 23.6194 25.782V20.337H27.6319C27.9831 20.3379 28.328 20.2443 28.6306 20.066C28.9332 19.8877 29.1822 19.6314 29.3516 19.3237C29.53 19.0079 29.6215 18.6505 29.6169 18.2878C29.6123 17.9251 29.5117 17.5702 29.3254 17.259L28.4861 15.8557C30.0098 15.949 31.4406 16.6196 32.4872 17.7308C33.5338 18.8421 34.1175 20.3105 34.1194 21.837ZM22.4539 10.0815C22.495 10.0076 22.5552 9.94604 22.6281 9.90319C22.701 9.86034 22.7841 9.83775 22.8686 9.83775C22.9532 9.83775 23.0363 9.86034 23.1092 9.90319C23.1821 9.94604 23.2422 10.0076 23.2834 10.0815L28.0399 18.0315C28.09 18.115 28.1169 18.2104 28.118 18.3078C28.119 18.4052 28.0941 18.5011 28.0459 18.5857C28.0058 18.661 27.9463 18.724 27.8734 18.7682C27.8005 18.8124 27.7171 18.8362 27.6319 18.837H23.6194V17.337C23.6194 16.7402 23.3823 16.1679 22.9604 15.746C22.5384 15.324 21.9661 15.087 21.3694 15.087H19.4599L22.4539 10.0815ZM11.6194 17.337C11.6194 17.1381 11.6984 16.9473 11.8391 16.8066C11.9797 16.666 12.1705 16.587 12.3694 16.587H21.3694C21.5683 16.587 21.7591 16.666 21.8997 16.8066C22.0404 16.9473 22.1194 17.1381 22.1194 17.337V26.337C22.1194 26.5359 22.0404 26.7267 21.8997 26.8673C21.7591 27.008 21.5683 27.087 21.3694 27.087H12.3694C12.1705 27.087 11.9797 27.008 11.8391 26.8673C11.6984 26.7267 11.6194 26.5359 11.6194 26.337V17.337Z" fill="#EAEAEB"/>
</svg>
