<svg width="45" height="42" viewBox="0 0 45 42" fill="none" xmlns="http://www.w3.org/2000/svg">
<path fill-rule="evenodd" clip-rule="evenodd" d="M30.4093 11.1096L23.0875 22.3671C22.9705 22.5465 22.8063 22.6786 22.6232 22.7579L19.3124 24.1679C18.646 24.451 17.8533 23.9886 17.8646 23.1675L17.8136 19.6227C17.8117 19.4094 17.8721 19.2112 17.9816 19.0451L25.3033 7.78751C27.1079 5.01277 32.2063 8.3481 30.4093 11.1096ZM12.9641 41.7278H32.0363C33.4104 41.7278 33.4104 39.6401 32.0363 39.6401H29.7636C28.5141 38.0149 27.5306 36.0519 27.223 34.0189H40.8077C43.1143 34.0189 45 32.1351 45 29.8265L44.9981 4.49718C44.9981 2.19624 43.1086 0.304871 40.8058 0.304871L4.19231 0.306758C1.88571 0.306758 0 2.19054 0 4.49907V29.8284C0 32.1313 1.88948 34.0207 4.19231 34.0207H17.777C17.4694 36.0555 16.4878 38.0148 15.2364 39.642H12.9637C11.5896 39.6401 11.5899 41.7278 12.9641 41.7278ZM17.7717 39.6401C18.8477 37.9395 19.631 36.0179 19.8764 34.0189H25.1217C25.3671 36.0178 26.1505 37.9394 27.2264 39.6401H17.7717ZM40.8077 2.3946H4.1928C3.03761 2.3946 2.08814 3.34403 2.08814 4.49926V29.8286C2.08814 30.9895 3.03191 31.9333 4.1928 31.9333H40.8063C41.9615 31.9333 42.9109 30.9839 42.9109 29.8286V4.49733C42.9109 3.33649 41.9686 2.3946 40.8077 2.3946ZM13.5605 27.5746C12.1863 27.5746 12.1863 25.487 13.5605 25.487H31.4396C32.8138 25.487 32.8138 27.5746 31.4396 27.5746H13.5605ZM21.5167 20.9662L28.6649 9.97679C28.95 9.53887 27.3248 8.49693 27.0473 8.92351L19.8971 19.9148L19.9216 21.6438L21.5167 20.9662Z" fill="#EAEAEB"/>
</svg>
