<svg width="45" height="46" viewBox="0 0 45 46" fill="none" xmlns="http://www.w3.org/2000/svg">
<path d="M37.4131 24.2397H43.228V14.7694H26.7554V24.2397H29.5212C30.0108 24.2397 30.4072 24.6361 30.4072 25.1257V27.6906L32.4376 25.3607C32.4484 25.3463 32.4609 25.3338 32.4753 25.3176L33.1497 24.5446C33.3255 24.3437 33.5712 24.2397 33.8169 24.2397H37.4167L37.4131 24.2397ZM38.3225 26.0118V44.6296C38.3225 45.1192 37.9261 45.5156 37.4364 45.5156H7.64989C7.16023 45.5156 6.76383 45.1193 6.76383 44.6296V18.24H0.886052C0.396398 18.24 0 17.8436 0 17.3539V6.11168C0 5.62203 0.396389 5.22563 0.886052 5.22563H6.76383V1.79084C6.76383 1.30118 7.16022 0.904785 7.64989 0.904785H37.4364C37.9261 0.904785 38.3225 1.30117 38.3225 1.79084V12.9972H44.1139C44.6036 12.9972 45 13.3936 45 13.8833V25.1255C45 25.6152 44.6036 26.0116 44.1139 26.0116L38.3225 26.0118ZM36.5504 12.9972V2.67652H8.53392V5.22526H33.119C33.6087 5.22526 34.0051 5.62165 34.0051 6.11131V12.997L36.5504 12.9972ZM32.235 12.9972V6.99773H20.0189V17.3561C20.0189 17.8457 19.6225 18.2421 19.1328 18.2421H16.3671V22.2867C16.3671 22.7764 15.9707 23.1728 15.481 23.1728C15.2048 23.1728 14.9573 23.0454 14.7958 22.8463L12.8533 20.6168V32.3885H32.237V28.2883L30.2066 30.6182C30.0434 30.8173 29.7977 30.9428 29.5215 30.9428C29.0318 30.9428 28.6354 30.5464 28.6354 30.0568V26.0122H25.8697C25.38 26.0122 24.9836 25.6158 24.9836 25.1261V13.8839C24.9836 13.3942 25.38 12.9978 25.8697 12.9978H32.2369L32.235 12.9972ZM34.0071 26.2519V33.274C34.0071 33.7636 33.6107 34.16 33.121 34.16H11.9654C11.4757 34.16 11.0794 33.7636 11.0794 33.274V18.5807L10.7834 18.2399H8.53602V43.7433H36.5525V26.0117H34.2172L34.0071 26.2519ZM40.4767 19.6854C40.9664 19.6854 41.3628 20.0818 41.3628 20.5715C41.3628 21.0611 40.9664 21.4575 40.4767 21.4575H33.7903C33.3007 21.4575 32.9043 21.0611 32.9043 20.5715C32.9043 20.0818 33.3007 19.6854 33.7903 19.6854H40.4767ZM40.4767 16.3798C40.9664 16.3798 41.3628 16.7762 41.3628 17.2658C41.3628 17.7555 40.9664 18.1519 40.4767 18.1519H29.5036C29.0139 18.1519 28.6175 17.7555 28.6175 17.2658C28.6175 16.7762 29.0139 16.3798 29.5036 16.3798H40.4767ZM18.2485 6.99718H1.77408V16.4675H11.187C11.4345 16.4675 11.6802 16.5715 11.8542 16.7724L12.6147 17.6441C12.629 17.6584 12.6416 17.6728 12.6541 17.6889L14.5948 19.9184V17.3535C14.5948 16.8639 14.9912 16.4675 15.4809 16.4675H18.2466V6.99719L18.2485 6.99718ZM4.52356 13.6854C4.03391 13.6854 3.63751 13.289 3.63751 12.7993C3.63751 12.3097 4.0339 11.9133 4.52356 11.9133H11.2086C11.6982 11.9133 12.0946 12.3097 12.0946 12.7993C12.0946 13.289 11.6982 13.6854 11.2086 13.6854H4.52356ZM4.52356 10.3798C4.03391 10.3798 3.63751 9.98338 3.63751 9.49371C3.63751 9.00406 4.0339 8.60766 4.52356 8.60766H15.4967C15.9864 8.60766 16.3828 9.00405 16.3828 9.49371C16.3828 9.98337 15.9864 10.3798 15.4967 10.3798H4.52356ZM22.5908 36.5596C23.4015 36.5596 24.1369 36.8896 24.6714 37.4241L24.6732 37.4259L24.6768 37.4241C25.2095 37.9568 25.5413 38.694 25.5413 39.5083C25.5413 40.3226 25.2113 41.0598 24.6768 41.5925C24.1441 42.1252 23.4069 42.4552 22.5926 42.4552C21.7782 42.4552 21.0411 42.1252 20.5084 41.5925C20.4904 41.5728 20.4725 41.553 20.4564 41.5351C19.9541 41.006 19.6457 40.2921 19.6457 39.5083C19.6457 38.6976 19.9757 37.9622 20.5102 37.4277L20.5138 37.4241C21.0465 36.8914 21.7818 36.5596 22.5943 36.5596L22.5908 36.5596ZM23.4249 38.6743C23.2132 38.4626 22.9172 38.3317 22.5908 38.3317C22.2644 38.3317 21.9702 38.4626 21.7568 38.6743C21.5451 38.8859 21.416 39.1819 21.416 39.5083C21.416 39.8168 21.5326 40.0984 21.7245 40.3065L21.7586 40.3387C21.9702 40.5504 22.2662 40.6831 22.5908 40.6831C22.9155 40.6831 23.2096 40.5504 23.4231 40.3387C23.6347 40.1271 23.7674 39.8311 23.7674 39.5065C23.7674 39.1819 23.6347 38.8877 23.4231 38.6743L23.4249 38.6725L23.4249 38.6743Z" fill="#EAEAEB"/>
</svg>
