<svg width="101" height="101" viewBox="0 0 101 101" fill="none" xmlns="http://www.w3.org/2000/svg">
<circle cx="50.5" cy="50.3936" r="49" stroke="#EAEAEB" stroke-width="2"/>
<path d="M73.1413 32.857C73.1032 31.6193 72.2314 30.5661 71.0286 30.2989C64.6048 28.8481 58.1462 26.3059 51.8337 22.7487C50.9842 22.2746 50.0137 22.2746 49.1706 22.7519C42.8645 26.3059 36.4088 28.8449 29.9847 30.2989C28.7597 30.5693 27.907 31.5938 27.8592 32.8506C27.0257 55.9943 34.0477 70.8023 49.3234 78.1199C49.7021 78.3013 50.0998 78.3936 50.5007 78.3936C50.8984 78.3936 51.2961 78.3013 51.6747 78.1199C66.9534 70.8051 73.9721 55.9974 73.1413 32.857ZM50.7958 76.2838C50.5922 76.3825 50.4109 76.3825 50.2072 76.2838C35.7397 69.3541 29.0965 55.1731 29.898 32.927C29.9107 32.6088 30.1176 32.3575 30.4294 32.2875C37.0505 30.7889 43.6905 28.1799 50.1717 24.5273C50.283 24.4669 50.3912 24.4351 50.5026 24.4351C50.6139 24.4351 50.7253 24.4669 50.8366 24.5273C57.3178 28.18 63.961 30.7921 70.5822 32.2875C70.8908 32.3543 71.0945 32.6025 71.104 32.9238C71.9058 55.17 65.2623 69.3548 50.7948 76.2807L50.7958 76.2838ZM62.4915 44.7082C63.3314 46.4836 63.7547 48.3831 63.7547 50.3558C63.7547 57.6642 57.808 63.6104 50.5 63.6104C48.5273 63.6104 46.6279 63.1841 44.8525 62.3473C44.3434 62.1054 44.127 61.5009 44.3657 60.9918C44.6075 60.4827 45.212 60.2664 45.7211 60.505C47.2197 61.2145 48.8265 61.5741 50.4969 61.5741C56.6822 61.5741 61.7128 56.5438 61.7128 50.3582C61.7128 48.6877 61.3532 47.081 60.6437 45.5824C60.4019 45.0733 60.6215 44.4656 61.1305 44.2269C61.6396 43.9851 62.2473 44.2047 62.486 44.7138L62.4915 44.7082ZM50.5026 39.1402C44.3173 39.1402 39.2867 44.1705 39.2867 50.3562C39.2867 52.0298 39.6462 53.6365 40.3494 55.1351C40.588 55.6442 40.3717 56.2519 39.8626 56.4906C39.7226 56.5574 39.5731 56.5892 39.4299 56.5892C39.0481 56.5892 38.6822 56.3728 38.5072 56.0037C37.6736 54.2315 37.2504 52.3321 37.2504 50.3562C37.2504 43.0478 43.197 37.1015 50.5051 37.1015C52.4809 37.1015 54.3804 37.5247 56.1526 38.3583C56.6617 38.597 56.8812 39.2047 56.6394 39.7138C56.4008 40.2229 55.793 40.4424 55.284 40.2006C53.7854 39.4942 52.1786 39.1379 50.505 39.1379L50.5026 39.1402ZM44.2824 52.1188C43.8942 51.7115 43.9101 51.0656 44.3174 50.6775C44.7246 50.2893 45.3706 50.3052 45.7587 50.7125L48.0527 53.1178L55.2402 45.4118C55.6251 45.0013 56.2678 44.9791 56.6814 45.3609C57.0919 45.7459 57.1142 46.3885 56.7324 46.8022L48.8067 55.3008C48.6158 55.5077 48.3485 55.6222 48.0685 55.6254H48.0622C47.7822 55.6254 47.5181 55.5108 47.324 55.3104L44.2854 52.1223L44.2824 52.1188Z" fill="#EAEAEB"/>
</svg>
