<svg width="234" height="325" viewBox="0 0 234 325" fill="none" xmlns="http://www.w3.org/2000/svg">
<path d="M8.20467 1.26213C7.81414 0.871607 7.18098 0.871607 6.79045 1.26213L0.426491 7.62609C0.0359664 8.01662 0.0359664 8.64978 0.426491 9.04031C0.817015 9.43083 1.45018 9.43083 1.8407 9.04031L7.49756 3.38345L13.1544 9.04031C13.5449 9.43083 14.1781 9.43083 14.5686 9.04031C14.9592 8.64978 14.9592 8.01662 14.5686 7.62609L8.20467 1.26213ZM7.49756 1.96924H6.49756V7.02372H7.49756H8.49756V1.96924H7.49756ZM7.49756 17.1327H6.49756V27.2417H7.49756H8.49756V17.1327H7.49756ZM7.49756 37.3506H6.49756V47.4596H7.49756H8.49756V37.3506H7.49756ZM7.49756 57.5686H6.49756V62.623H7.49756H8.49756V57.5686H7.49756ZM7.49756 62.623H6.49756C6.49756 64.5241 6.55009 66.413 6.6538 68.2884L7.65227 68.2332L8.65075 68.1779C8.54907 66.3393 8.49756 64.4873 8.49756 62.623H7.49756ZM8.89571 79.3819L7.90965 79.5483C8.54348 83.3047 9.38469 86.9907 10.4211 90.5942L11.3822 90.3178L12.3432 90.0414C11.3275 86.5099 10.503 82.8973 9.88177 79.2155L8.89571 79.3819ZM15.0856 100.902L14.1619 101.285C15.6153 104.79 17.2603 108.195 19.0839 111.487L19.9587 111.003L20.8335 110.518C19.0461 107.291 17.4338 103.954 16.0093 100.519L15.0856 100.902ZM25.9344 120.494L25.1194 121.073C27.311 124.157 29.6713 127.112 32.1868 129.925L32.9323 129.258L33.6777 128.591C31.2116 125.834 28.8978 122.937 26.7495 119.915L25.9344 120.494ZM40.8627 137.188L40.1961 137.934C43.0091 140.449 45.9639 142.81 49.0472 145.001L49.6265 144.186L50.2059 143.371C47.1835 141.223 44.2869 138.909 41.5293 136.443L40.8627 137.188ZM59.1176 150.162L58.6331 151.037C61.9257 152.86 65.3309 154.505 68.8357 155.959L69.2188 155.035L69.6018 154.111C66.1668 152.687 62.8293 151.075 59.6021 149.287L59.1176 150.162ZM79.8028 158.738L79.5264 159.699C83.1299 160.736 86.8159 161.577 90.5723 162.211L90.7387 161.225L90.9051 160.239C87.2233 159.618 83.6107 158.793 80.0792 157.777L79.8028 158.738ZM101.887 162.468L101.832 163.467C103.708 163.571 105.596 163.623 107.498 163.623V162.623V161.623C105.633 161.623 103.781 161.572 101.943 161.47L101.887 162.468ZM107.498 162.623V163.623H113.812V162.623V161.623H107.498V162.623ZM126.441 162.623V163.623H139.07V162.623V161.623H126.441V162.623ZM151.699 162.623V163.623H164.328V162.623V161.623H151.699V162.623ZM176.957 162.623V163.623H189.586V162.623V161.623H176.957V162.623ZM202.215 162.623V163.623H214.844V162.623V161.623H202.215V162.623ZM227.473 162.623V163.623H233.787V162.623V161.623H227.473V162.623Z" fill="#F8F8F8"/>
<path d="M8.20467 323.984C7.81414 324.374 7.18098 324.374 6.79045 323.984L0.426491 317.62C0.0359664 317.229 0.0359664 316.596 0.426491 316.206C0.817015 315.815 1.45018 315.815 1.8407 316.206L7.49756 321.863L13.1544 316.206C13.5449 315.815 14.1781 315.815 14.5686 316.206C14.9592 316.596 14.9592 317.229 14.5686 317.62L8.20467 323.984ZM7.49756 323.277H6.49756V318.222H7.49756H8.49756V323.277H7.49756ZM7.49756 308.113H6.49756V298.004H7.49756H8.49756V308.113H7.49756ZM7.49756 287.895H6.49756V277.786H7.49756H8.49756V287.895H7.49756ZM7.49756 267.678H6.49756V262.623H7.49756H8.49756V267.678H7.49756ZM7.49756 262.623H6.49756C6.49756 260.722 6.55009 258.833 6.6538 256.958L7.65227 257.013L8.65075 257.068C8.54907 258.907 8.49756 260.759 8.49756 262.623H7.49756ZM8.89571 245.864L7.90965 245.698C8.54348 241.941 9.38469 238.255 10.4211 234.652L11.3822 234.928L12.3432 235.205C11.3275 238.736 10.503 242.349 9.88177 246.031L8.89571 245.864ZM15.0856 224.344L14.1619 223.961C15.6153 220.456 17.2603 217.051 19.0839 213.759L19.9587 214.243L20.8335 214.728C19.0461 217.955 17.4338 221.292 16.0093 224.727L15.0856 224.344ZM25.9344 204.752L25.1194 204.173C27.311 201.089 29.6713 198.135 32.1868 195.322L32.9323 195.988L33.6777 196.655C31.2116 199.412 28.8978 202.309 26.7495 205.331L25.9344 204.752ZM40.8627 188.058L40.1961 187.312C43.0091 184.797 45.9639 182.436 49.0472 180.245L49.6265 181.06L50.2059 181.875C47.1835 184.023 44.2869 186.337 41.5293 188.803L40.8627 188.058ZM59.1176 175.084L58.6331 174.209C61.9257 172.386 65.3309 170.741 68.8357 169.287L69.2188 170.211L69.6018 171.135C66.1668 172.559 62.8293 174.172 59.6021 175.959L59.1176 175.084ZM79.8028 166.508L79.5264 165.547C83.1299 164.51 86.8159 163.669 90.5723 163.035L90.7387 164.021L90.9051 165.007C87.2233 165.628 83.6107 166.453 80.0792 167.469L79.8028 166.508ZM101.887 162.778L101.832 161.779C103.708 161.676 105.596 161.623 107.498 161.623V162.623V163.623C105.633 163.623 103.781 163.675 101.943 163.776L101.887 162.778ZM107.498 162.623V161.623H113.812V162.623V163.623H107.498V162.623ZM126.441 162.623V161.623H139.07V162.623V163.623H126.441V162.623ZM151.699 162.623V161.623H164.328V162.623V163.623H151.699V162.623ZM176.957 162.623V161.623H189.586V162.623V163.623H176.957V162.623ZM202.215 162.623V161.623H214.844V162.623V163.623H202.215V162.623ZM227.473 162.623V161.623H233.787V162.623V163.623H227.473V162.623Z" fill="#F8F8F8"/>
</svg>
