<svg width="20" height="21" viewBox="0 0 20 21" fill="none" xmlns="http://www.w3.org/2000/svg">
<path d="M19 5.52246C17.8069 5.52122 16.663 5.04672 15.8194 4.20307C14.9757 3.35943 14.5012 2.21555 14.5 1.02246C14.5 0.823549 14.421 0.632783 14.2803 0.492131C14.1397 0.351479 13.9489 0.272461 13.75 0.272461H10C9.80109 0.272461 9.61032 0.351479 9.46967 0.492131C9.32902 0.632783 9.25 0.823549 9.25 1.02246V13.3975C9.24985 13.733 9.15967 14.0623 8.98887 14.3511C8.81807 14.6399 8.57291 14.8776 8.27896 15.0393C7.98501 15.2011 7.65304 15.281 7.31768 15.2707C6.98232 15.2605 6.65586 15.1604 6.37234 14.981C6.08883 14.8016 5.85865 14.5494 5.70582 14.2507C5.55299 13.952 5.4831 13.6178 5.50345 13.2829C5.5238 12.948 5.63364 12.6247 5.82151 12.3467C6.00939 12.0687 6.26841 11.8462 6.57156 11.7025C6.6998 11.6416 6.80813 11.5456 6.88397 11.4256C6.95981 11.3056 7.00005 11.1666 7 11.0246V7.02246C7.00005 6.91283 6.97606 6.80452 6.92972 6.70516C6.88339 6.6058 6.81584 6.51781 6.73182 6.44738C6.6478 6.37695 6.54937 6.32579 6.44345 6.29751C6.33752 6.26924 6.22669 6.26453 6.11875 6.28371C2.77281 6.87996 0.25 9.93809 0.25 13.3975C0.25 15.2871 1.00067 17.0994 2.33686 18.4356C3.67306 19.7718 5.48533 20.5225 7.375 20.5225C9.26467 20.5225 11.0769 19.7718 12.4131 18.4356C13.7493 17.0994 14.5 15.2871 14.5 13.3975V9.67465C15.889 10.3994 17.4333 10.7761 19 10.7725C19.1989 10.7725 19.3897 10.6934 19.5303 10.5528C19.671 10.4121 19.75 10.2214 19.75 10.0225V6.27246C19.75 6.07355 19.671 5.88278 19.5303 5.74213C19.3897 5.60148 19.1989 5.52246 19 5.52246ZM18.25 9.23871C16.7843 9.10884 15.3809 8.58575 14.1878 7.72465C14.0757 7.64402 13.9434 7.59593 13.8057 7.58567C13.668 7.57541 13.5301 7.60338 13.4072 7.6665C13.2844 7.72962 13.1814 7.82544 13.1095 7.94339C13.0376 8.06134 12.9997 8.19685 13 8.33496V13.3975C13 14.8893 12.4074 16.32 11.3525 17.3749C10.2976 18.4298 8.86684 19.0225 7.375 19.0225C5.88316 19.0225 4.45242 18.4298 3.39752 17.3749C2.34263 16.32 1.75 14.8893 1.75 13.3975C1.75 10.9693 3.31 8.79152 5.5 7.99746V10.5915C5.01517 10.9155 4.62254 11.3595 4.36037 11.8803C4.09821 12.4011 3.97545 12.981 4.00407 13.5634C4.03268 14.1458 4.2117 14.7108 4.52366 15.2034C4.83562 15.6961 5.26989 16.0995 5.78414 16.3743C6.29839 16.6492 6.87508 16.7861 7.458 16.7717C8.04091 16.7574 8.61017 16.5923 9.11028 16.2925C9.6104 15.9927 10.0243 15.5684 10.3117 15.0611C10.599 14.5537 10.7501 13.9806 10.75 13.3975V1.77246H13.0469C13.2155 3.09348 13.818 4.32112 14.7597 5.2628C15.7013 6.20449 16.929 6.80692 18.25 6.97559V9.23871Z" fill="white"/>
</svg>
