<svg width="21" height="19" viewBox="0 0 21 19" fill="none" xmlns="http://www.w3.org/2000/svg">
<path d="M20.1928 3.23596C20.1361 3.09891 20.04 2.98176 19.9166 2.89932C19.7933 2.81689 19.6483 2.77287 19.5 2.77284H16.6472C16.2483 2.09426 15.6807 1.53042 14.9994 1.13616C14.3181 0.741889 13.5465 0.530603 12.7594 0.522839C12.173 0.515148 11.591 0.624815 11.0476 0.845387C10.5042 1.06596 10.0104 1.39298 9.59531 1.80721C9.16807 2.22649 8.82896 2.72695 8.59793 3.27917C8.36689 3.83139 8.2486 4.42424 8.25 5.02284V5.59378C4.47562 4.59815 1.38844 1.52784 1.35562 1.49503C1.255 1.39352 1.12747 1.32287 0.988047 1.29141C0.848622 1.25995 0.70311 1.26898 0.568648 1.31745C0.434185 1.36591 0.316371 1.45179 0.22908 1.56497C0.141789 1.67815 0.0886554 1.81391 0.0759371 1.95628C-0.328125 6.43659 0.973125 9.43471 2.13844 11.1607C2.70663 12.0139 3.39786 12.7784 4.18969 13.4294C2.76187 15.0728 0.51375 15.9363 0.489375 15.9457C0.383544 15.9853 0.288039 16.0483 0.209996 16.1301C0.131953 16.2118 0.0733892 16.3101 0.0386815 16.4177C0.00397388 16.5252 -0.00598058 16.6392 0.00956168 16.7512C0.0251039 16.8631 0.065741 16.9701 0.128437 17.0641C0.198749 17.1691 0.48 17.5375 1.16719 17.8816C2.01656 18.3072 3.13875 18.5228 4.5 18.5228C11.1253 18.5228 16.6612 13.421 17.2266 6.85659L20.0306 4.05346C20.1355 3.94852 20.2069 3.81483 20.2357 3.66932C20.2646 3.5238 20.2497 3.37299 20.1928 3.23596ZM15.9741 5.99315C15.8455 6.12205 15.7682 6.29333 15.7566 6.47503C15.375 12.3897 10.4325 17.0228 4.5 17.0228C3.51 17.0228 2.8125 16.8916 2.32312 16.7341C3.40219 16.1482 4.90687 15.1403 5.87437 13.6891C5.93116 13.6038 5.96985 13.5077 5.98806 13.4068C6.00626 13.3059 6.0036 13.2024 5.98023 13.1026C5.95686 13.0028 5.91328 12.9089 5.85218 12.8265C5.79109 12.7442 5.71377 12.6753 5.625 12.6241C5.58094 12.5988 1.50844 10.1547 1.5 3.62409C3 4.84284 5.74219 6.73378 8.87531 7.26065C8.98269 7.27876 9.09273 7.27326 9.19777 7.24454C9.30281 7.21583 9.40034 7.16459 9.48358 7.09437C9.56681 7.02416 9.63376 6.93667 9.67977 6.83797C9.72578 6.73927 9.74975 6.63173 9.75 6.52284V5.02284C9.74916 4.62276 9.82835 4.22655 9.98291 3.85754C10.1375 3.48852 10.3643 3.15414 10.65 2.87409C10.9239 2.59968 11.25 2.38297 11.6091 2.23676C11.9682 2.09054 12.3529 2.01781 12.7406 2.02284C13.9275 2.03784 15.0366 2.76159 15.5006 3.82378C15.5591 3.95732 15.6553 4.07092 15.7773 4.15067C15.8994 4.23043 16.042 4.27288 16.1878 4.27284H17.6878L15.9741 5.99315Z" fill="white"/>
</svg>
