<svg width="14" height="14" viewBox="0 0 14 14" fill="none" xmlns="http://www.w3.org/2000/svg">
<path d="M7 0.09375C5.63408 0.09375 4.29882 0.498795 3.1631 1.25766C2.02737 2.01653 1.14218 3.09514 0.61946 4.35709C0.0967424 5.61904 -0.0400244 7.00766 0.226455 8.34734C0.492934 9.68702 1.15069 10.9176 2.11655 11.8835C3.0824 12.8493 4.31298 13.5071 5.65266 13.7735C6.99234 14.04 8.38096 13.9033 9.64291 13.3805C10.9049 12.8578 11.9835 11.9726 12.7423 10.8369C13.5012 9.70118 13.9063 8.36593 13.9063 7C13.9043 5.16894 13.1761 3.41343 11.8813 2.11868C10.5866 0.823925 8.83106 0.0956836 7 0.09375ZM6.73438 3.28125C6.89198 3.28125 7.04605 3.32799 7.1771 3.41555C7.30814 3.50311 7.41028 3.62756 7.47059 3.77317C7.53091 3.91878 7.54669 4.07901 7.51594 4.23359C7.48519 4.38817 7.4093 4.53016 7.29785 4.6416C7.18641 4.75305 7.04442 4.82894 6.88984 4.85969C6.73526 4.89044 6.57504 4.87466 6.42943 4.81434C6.28382 4.75403 6.15936 4.65189 6.0718 4.52084C5.98424 4.3898 5.9375 4.23573 5.9375 4.07812C5.9375 3.86678 6.02146 3.66409 6.1709 3.51465C6.32035 3.36521 6.52303 3.28125 6.73438 3.28125ZM7.53125 10.7188C7.24946 10.7188 6.97921 10.6068 6.77995 10.4076C6.58069 10.2083 6.46875 9.93804 6.46875 9.65625V7C6.32786 7 6.19273 6.94403 6.0931 6.8444C5.99347 6.74477 5.9375 6.60965 5.9375 6.46875C5.9375 6.32785 5.99347 6.19273 6.0931 6.0931C6.19273 5.99347 6.32786 5.9375 6.46875 5.9375C6.75055 5.9375 7.0208 6.04944 7.22005 6.2487C7.41931 6.44796 7.53125 6.71821 7.53125 7V9.65625C7.67215 9.65625 7.80728 9.71222 7.9069 9.81185C8.00653 9.91148 8.0625 10.0466 8.0625 10.1875C8.0625 10.3284 8.00653 10.4635 7.9069 10.5632C7.80728 10.6628 7.67215 10.7188 7.53125 10.7188Z" fill="#D5DBE6"/>
</svg>
