<svg width="45" height="49" viewBox="0 0 45 49" fill="none" xmlns="http://www.w3.org/2000/svg">
<path d="M32.6715 47.4485C32.6715 47.868 32.3293 48.2102 31.9098 48.2102H13.0985C12.6789 48.2102 12.3368 47.868 12.3368 47.4485C12.3368 47.029 12.679 46.6868 13.0985 46.6868H16.375L17.0594 42.0672H27.9369L28.6212 46.6868H31.8978C32.3291 46.6868 32.6715 47.029 32.6715 47.4485ZM43.9336 7.56025C43.4367 7.06338 42.7406 6.74929 41.9765 6.74929H29.9903C30.0325 6.95319 30.0559 7.16413 30.0559 7.37977C30.0559 7.6868 30.009 7.99147 29.9176 8.27276H41.9789C42.3211 8.27276 42.6328 8.41572 42.8554 8.63839C43.0781 8.86105 43.2211 9.17276 43.2211 9.51493V33.6297H1.78361V9.51673C1.78361 9.17454 1.92189 8.86285 2.14924 8.64019C2.37658 8.41284 2.68361 8.27456 3.02578 8.27456H15.0913C15.0022 7.9933 14.953 7.6933 14.953 7.38157C14.953 7.16594 14.9764 6.955 15.0186 6.75109L3.02093 6.74874C2.25922 6.74874 1.56778 7.06046 1.0639 7.55971C0.56702 8.05658 0.25293 8.7527 0.25293 9.51674V37.7781C0.25293 38.5398 0.56465 39.2313 1.0639 39.7352C1.5678 40.232 2.25688 40.5461 3.02093 40.5461H41.9792C42.7409 40.5461 43.4323 40.2344 43.9362 39.7352C44.4331 39.2383 44.7472 38.5422 44.7472 37.7781V9.51674C44.7495 8.7527 44.4378 8.05657 43.9339 7.55971L43.9336 7.56025ZM23.2592 16.0215V23.3836L28.3523 14.3367C27.1218 13.2445 26.2452 11.925 25.6827 10.3945L19.3215 10.3921C18.7637 11.9226 17.8871 13.2422 16.6519 14.3343L21.7403 23.3812V16.0216C21.2176 15.745 20.8637 15.1989 20.8637 14.5754C20.8637 13.6684 21.595 12.9371 22.495 12.9371C23.402 12.9371 24.1333 13.6684 24.1333 14.5754C24.1404 15.2036 23.7795 15.7496 23.2592 16.0215ZM26.8827 0.210205H18.1215V4.35635H26.8827V0.210205ZM17.9673 8.87486H27.0399C27.8626 8.87486 28.5329 8.2022 28.5329 7.38187C28.5329 6.55921 27.8603 5.88888 27.0399 5.88888L17.9673 5.88654C17.1446 5.88654 16.4743 6.5592 16.4743 7.37953C16.4719 8.20219 17.1493 8.87486 17.9673 8.87486ZM29.6061 26.9338C29.8405 27.2807 30.314 27.3721 30.6632 27.1307L38.0552 22.0845C38.4021 21.8501 38.4935 21.3767 38.2521 21.0275C38.1912 20.9431 38.1208 20.8704 38.0365 20.8165L30.6558 15.7775C30.3089 15.5431 29.8331 15.6345 29.5988 15.9743C29.3644 16.3212 29.4488 16.797 29.7957 17.0314L36.2691 21.447L29.7957 25.8627C29.4558 26.1135 29.3718 26.5869 29.6061 26.9338ZM14.3414 15.7869L6.9608 20.826C6.88346 20.8799 6.8108 20.9455 6.74987 21.0369C6.51549 21.3838 6.59986 21.8596 6.94674 22.0939L14.3388 27.1401C14.6857 27.3745 15.1615 27.2831 15.3958 26.9432C15.6302 26.5963 15.5388 26.1206 15.1989 25.8862L8.7255 21.4705L15.1989 17.0549C15.5458 16.8205 15.6372 16.347 15.3958 15.9978C15.1638 15.6369 14.6907 15.5455 14.3414 15.7869Z" fill="#EAEAEB"/>
</svg>
