<svg width="17" height="18" viewBox="0 0 17 18" fill="none" xmlns="http://www.w3.org/2000/svg">
<path d="M14.1918 14.2207L10.175 7.73964L14.1385 3.26328C14.2282 3.15953 14.2744 3.0237 14.2671 2.88522C14.2599 2.74674 14.1997 2.61678 14.0998 2.52351C13.9998 2.43024 13.8681 2.38118 13.7331 2.38697C13.5982 2.39276 13.4709 2.45293 13.3788 2.55443L9.60327 6.81802L7.00518 2.62624C6.95885 2.55137 6.89487 2.48972 6.81916 2.447C6.74344 2.40428 6.65845 2.38186 6.57206 2.38184H3.49208C3.40004 2.38179 3.30968 2.40715 3.23046 2.45526C3.15125 2.50337 3.08609 2.57247 3.04181 2.65531C2.99753 2.73815 2.97576 2.83169 2.97877 2.92613C2.98179 3.02057 3.00949 3.11244 3.05896 3.19213L7.07576 9.67248L3.11221 14.1521C3.06593 14.2032 3.02997 14.2632 3.00643 14.3286C2.98288 14.394 2.97222 14.4636 2.97506 14.5332C2.97789 14.6029 2.99417 14.6713 3.02295 14.7345C3.05173 14.7977 3.09243 14.8544 3.1427 14.9013C3.19297 14.9482 3.25181 14.9844 3.31581 15.0077C3.3798 15.0311 3.44768 15.0412 3.51552 15.0375C3.58335 15.0338 3.64978 15.0162 3.71096 14.9859C3.77215 14.9556 3.82686 14.9132 3.87194 14.861L7.64749 10.5974L10.2456 14.7892C10.2923 14.8634 10.3564 14.9244 10.4321 14.9666C10.5078 15.0087 10.5926 15.0306 10.6787 15.0303H13.7587C13.8506 15.0303 13.9409 15.0049 14.02 14.9568C14.0991 14.9087 14.1642 14.8397 14.2085 14.757C14.2527 14.6742 14.2745 14.5808 14.2716 14.4865C14.2687 14.3921 14.2411 14.3003 14.1918 14.2207ZM10.9604 13.9763L4.42698 3.43587H6.2878L12.8238 13.9763H10.9604Z" fill="#D5DBE6"/>
</svg>
