<svg width="22" height="18" viewBox="0 0 22 18" fill="none" xmlns="http://www.w3.org/2000/svg">
<path d="M14.4163 8.14809L9.91625 5.14809C9.80327 5.07271 9.67195 5.02943 9.53629 5.02286C9.40064 5.01628 9.26575 5.04667 9.14601 5.11077C9.02628 5.17487 8.9262 5.27029 8.85645 5.38682C8.7867 5.50336 8.74991 5.63665 8.75 5.77246V11.7725C8.74991 11.9083 8.7867 12.0416 8.85645 12.1581C8.9262 12.2746 9.02628 12.3701 9.14601 12.4342C9.26575 12.4983 9.40064 12.5286 9.53629 12.5221C9.67195 12.5155 9.80327 12.4722 9.91625 12.3968L14.4163 9.39684C14.5191 9.32838 14.6035 9.23556 14.6618 9.12663C14.7202 9.0177 14.7507 8.89604 14.7507 8.77246C14.7507 8.64889 14.7202 8.52723 14.6618 8.4183C14.6035 8.30938 14.5191 8.21655 14.4163 8.14809ZM10.25 10.3709V7.17872L12.6481 8.77246L10.25 10.3709ZM20.9684 3.28996C20.8801 2.94435 20.7109 2.6247 20.4747 2.35737C20.2385 2.09004 19.9421 1.88271 19.61 1.75246C16.3962 0.511214 11.2812 0.522465 11 0.522465C10.7188 0.522465 5.60375 0.511214 2.39 1.75246C2.0579 1.88271 1.76153 2.09004 1.52534 2.35737C1.28915 2.6247 1.1199 2.94435 1.03156 3.28996C0.78875 4.22559 0.5 5.93559 0.5 8.77246C0.5 11.6093 0.78875 13.3193 1.03156 14.255C1.11977 14.6007 1.28895 14.9206 1.52515 15.1881C1.76136 15.4556 2.0578 15.6631 2.39 15.7934C5.46875 16.9812 10.2875 17.0225 10.9381 17.0225H11.0619C11.7125 17.0225 16.5341 16.9812 19.61 15.7934C19.9422 15.6631 20.2386 15.4556 20.4748 15.1881C20.711 14.9206 20.8802 14.6007 20.9684 14.255C21.2113 13.3175 21.5 11.6093 21.5 8.77246C21.5 5.93559 21.2113 4.22559 20.9684 3.28996ZM19.5163 13.8837C19.4877 13.9987 19.4323 14.1053 19.3545 14.1948C19.2768 14.2843 19.179 14.354 19.0691 14.3984C16.1019 15.544 11.0553 15.5234 11.0066 15.5234H11C10.9494 15.5234 5.90656 15.5422 2.9375 14.3984C2.8276 14.354 2.72977 14.2843 2.65204 14.1948C2.57431 14.1053 2.51888 13.9987 2.49031 13.8837C2.2625 13.0278 2 11.4509 2 8.77246C2 6.09403 2.2625 4.51715 2.48375 3.6659C2.51179 3.5502 2.56697 3.44283 2.64473 3.35268C2.7225 3.26253 2.8206 3.19218 2.93094 3.14746C5.79219 2.04215 10.5866 2.02246 10.9794 2.02246H11.0047C11.0553 2.02246 16.1028 2.00559 19.0672 3.14746C19.1771 3.19182 19.2749 3.26159 19.3526 3.35105C19.4304 3.44052 19.4858 3.54713 19.5144 3.66215C19.7375 4.51715 20 6.09403 20 8.77246C20 11.4509 19.7375 13.0278 19.5163 13.879V13.8837Z" fill="white"/>
</svg>
