<svg width="124" height="131" viewBox="0 0 124 131" fill="none" xmlns="http://www.w3.org/2000/svg">
<path d="M90.8028 72.1686C90.8028 95.1371 75.3902 106.621 44.5652 106.621C15.0334 106.621 0.267578 95.5744 0.267578 73.4806V23.4558H19.5063V70.6856C19.5063 86.733 28.3443 94.7568 46.0202 94.7568C63.0494 94.7568 71.564 87.0182 71.564 71.5412V23.4558H90.8028V72.1686Z" fill="#CFE7FF"/>
<path d="M123.732 130.597H103.712L83.0603 100.593C82.4515 99.6808 81.7725 98.3879 81.0232 96.7147H80.7422C80.3208 97.5513 79.6183 98.8442 78.6349 100.593L57.3505 130.597H37.1901L70.2054 89.4705L39.8594 48.8004H60.3008L78.4944 76.4082C79.6651 78.2335 80.7188 80.0588 81.6554 81.8841H81.8662C83.2243 79.4884 84.395 77.587 85.3784 76.18L104.274 48.8004H123.1L92.0518 89.3564L123.732 130.597Z" fill="#CFE7FF"/>
<path d="M90.8028 10.0554C90.8028 15.2503 86.5915 19.4615 81.3967 19.4615C76.2019 19.4615 71.9907 15.2503 71.9907 10.0554C71.9907 4.86064 76.2019 0.649414 81.3967 0.649414C86.5915 0.649414 90.8028 4.86064 90.8028 10.0554Z" fill="#CFE7FF"/>
</svg>
