<svg width="57" height="60" viewBox="0 0 57 60" fill="none" xmlns="http://www.w3.org/2000/svg">
<path d="M41.3121 33.0927C41.3121 43.5734 34.2792 48.8138 20.2134 48.8138C6.73781 48.8138 0 43.773 0 33.6913V10.8645H8.77883V32.4159C8.77883 39.7386 12.8117 43.3999 20.8774 43.3999C28.648 43.3999 32.5333 39.8687 32.5333 32.8064V10.8645H41.3121V33.0927Z" fill="#EAEAEB"/>
<path d="M56.3383 59.7541H47.203L37.7792 46.0632C37.5014 45.6468 37.1915 45.0568 36.8496 44.2933H36.7214C36.5291 44.6751 36.2085 45.265 35.7598 46.0632L26.0475 59.7541H16.8481L31.9134 40.9877L18.0662 22.4295H27.3938L35.6957 35.0272C36.2299 35.8601 36.7107 36.693 37.1381 37.5259H37.2343C37.854 36.4328 38.3882 35.5651 38.837 34.9231L47.4594 22.4295H56.0498L41.8821 40.9357L56.3383 59.7541Z" fill="#EAEAEB"/>
<path d="M41.3121 4.7498C41.3121 7.12024 39.3905 9.04187 37.0201 9.04187C34.6496 9.04187 32.728 7.12024 32.728 4.7498C32.728 2.37936 34.6496 0.457733 37.0201 0.457733C39.3905 0.457733 41.3121 2.37936 41.3121 4.7498Z" fill="#1C97F0"/>
</svg>
